<mxfile host="Electron" modified="2023-11-07T10:05:51.412Z" agent="Mozilla/5.0 (X11; Linux x86_64) AppleWebKit/537.36 (KHTML, like Gecko) draw.io/22.0.3 Chrome/114.0.5735.289 Electron/25.8.4 Safari/537.36" etag="az3stPJVbCs_KOHDrFGv" version="22.0.3" type="device" pages="4">
  <diagram name="Dashboard" id="_dP16y7mLS4ivZkJNam6">
    <mxGraphModel dx="1195" dy="698" grid="1" gridSize="10" guides="1" tooltips="1" connect="1" arrows="1" fold="1" page="1" pageScale="1" pageWidth="827" pageHeight="1169" math="0" shadow="0">
      <root>
        <mxCell id="0" />
        <mxCell id="1" parent="0" />
        <mxCell id="woTAsU7SqV_SNtMcE8Xr-5" value="" style="rounded=0;whiteSpace=wrap;html=1;fillColor=none;" parent="1" vertex="1">
          <mxGeometry x="80" y="270" width="720" height="450" as="geometry" />
        </mxCell>
        <mxCell id="woTAsU7SqV_SNtMcE8Xr-78" value="" style="rounded=1;whiteSpace=wrap;html=1;fillColor=#fff2cc;strokeColor=#d6b656;align=left;" parent="1" vertex="1">
          <mxGeometry x="110" y="300" width="660" height="40" as="geometry" />
        </mxCell>
        <mxCell id="woTAsU7SqV_SNtMcE8Xr-80" value="Dismiss" style="strokeWidth=1;shadow=0;dashed=0;align=center;html=1;shape=mxgraph.mockup.buttons.button;strokeColor=#b85450;mainText=;buttonStyle=round;fontSize=14;fontStyle=1;fillColor=#f8cecc;whiteSpace=wrap;" parent="1" vertex="1">
          <mxGeometry x="630" y="305" width="130" height="30" as="geometry" />
        </mxCell>
        <mxCell id="woTAsU7SqV_SNtMcE8Xr-81" value="&lt;font style=&quot;font-size: 14px;&quot;&gt;New vulnerability discovered in service S4, restart it to start counting the triggers&lt;/font&gt;" style="text;html=1;align=left;verticalAlign=middle;resizable=0;points=[];autosize=1;strokeColor=none;fillColor=none;" parent="1" vertex="1">
          <mxGeometry x="120" y="305" width="520" height="30" as="geometry" />
        </mxCell>
        <mxCell id="woTAsU7SqV_SNtMcE8Xr-82" value="" style="shape=table;startSize=0;container=1;collapsible=0;childLayout=tableLayout;" parent="1" vertex="1">
          <mxGeometry x="110" y="460" width="660" height="230" as="geometry" />
        </mxCell>
        <mxCell id="woTAsU7SqV_SNtMcE8Xr-83" value="" style="shape=tableRow;horizontal=0;startSize=0;swimlaneHead=0;swimlaneBody=0;strokeColor=inherit;top=0;left=0;bottom=0;right=0;collapsible=0;dropTarget=0;fillColor=none;points=[[0,0.5],[1,0.5]];portConstraint=eastwest;" parent="woTAsU7SqV_SNtMcE8Xr-82" vertex="1">
          <mxGeometry width="660" height="39" as="geometry" />
        </mxCell>
        <mxCell id="woTAsU7SqV_SNtMcE8Xr-84" value="ID" style="shape=partialRectangle;html=1;whiteSpace=wrap;connectable=0;strokeColor=inherit;overflow=hidden;fillColor=none;top=0;left=0;bottom=0;right=0;pointerEvents=1;fontStyle=1" parent="woTAsU7SqV_SNtMcE8Xr-83" vertex="1">
          <mxGeometry width="200" height="39" as="geometry">
            <mxRectangle width="200" height="39" as="alternateBounds" />
          </mxGeometry>
        </mxCell>
        <mxCell id="woTAsU7SqV_SNtMcE8Xr-85" value="Severity" style="shape=partialRectangle;html=1;whiteSpace=wrap;connectable=0;strokeColor=inherit;overflow=hidden;fillColor=none;top=0;left=0;bottom=0;right=0;pointerEvents=1;fontStyle=1" parent="woTAsU7SqV_SNtMcE8Xr-83" vertex="1">
          <mxGeometry x="200" width="110" height="39" as="geometry">
            <mxRectangle width="110" height="39" as="alternateBounds" />
          </mxGeometry>
        </mxCell>
        <mxCell id="woTAsU7SqV_SNtMcE8Xr-86" value="Trigger count" style="shape=partialRectangle;html=1;whiteSpace=wrap;connectable=0;strokeColor=inherit;overflow=hidden;fillColor=none;top=0;left=0;bottom=0;right=0;pointerEvents=1;fontStyle=1" parent="woTAsU7SqV_SNtMcE8Xr-83" vertex="1">
          <mxGeometry x="310" width="130" height="39" as="geometry">
            <mxRectangle width="130" height="39" as="alternateBounds" />
          </mxGeometry>
        </mxCell>
        <mxCell id="woTAsU7SqV_SNtMcE8Xr-87" value="&lt;b&gt;Actions&lt;/b&gt;" style="shape=partialRectangle;html=1;whiteSpace=wrap;connectable=0;strokeColor=inherit;overflow=hidden;fillColor=none;top=0;left=0;bottom=0;right=0;pointerEvents=1;" parent="woTAsU7SqV_SNtMcE8Xr-83" vertex="1">
          <mxGeometry x="440" width="220" height="39" as="geometry">
            <mxRectangle width="220" height="39" as="alternateBounds" />
          </mxGeometry>
        </mxCell>
        <mxCell id="woTAsU7SqV_SNtMcE8Xr-88" value="" style="shape=tableRow;horizontal=0;startSize=0;swimlaneHead=0;swimlaneBody=0;strokeColor=inherit;top=0;left=0;bottom=0;right=0;collapsible=0;dropTarget=0;fillColor=none;points=[[0,0.5],[1,0.5]];portConstraint=eastwest;" parent="woTAsU7SqV_SNtMcE8Xr-82" vertex="1">
          <mxGeometry y="39" width="660" height="37" as="geometry" />
        </mxCell>
        <mxCell id="woTAsU7SqV_SNtMcE8Xr-89" value="CVE-2021-44228" style="shape=partialRectangle;html=1;whiteSpace=wrap;connectable=0;strokeColor=inherit;overflow=hidden;fillColor=none;top=0;left=0;bottom=0;right=0;pointerEvents=1;" parent="woTAsU7SqV_SNtMcE8Xr-88" vertex="1">
          <mxGeometry width="200" height="37" as="geometry">
            <mxRectangle width="200" height="37" as="alternateBounds" />
          </mxGeometry>
        </mxCell>
        <mxCell id="woTAsU7SqV_SNtMcE8Xr-90" value="Critical" style="shape=partialRectangle;html=1;whiteSpace=wrap;connectable=0;strokeColor=inherit;overflow=hidden;fillColor=none;top=0;left=0;bottom=0;right=0;pointerEvents=1;" parent="woTAsU7SqV_SNtMcE8Xr-88" vertex="1">
          <mxGeometry x="200" width="110" height="37" as="geometry">
            <mxRectangle width="110" height="37" as="alternateBounds" />
          </mxGeometry>
        </mxCell>
        <mxCell id="woTAsU7SqV_SNtMcE8Xr-91" value="25546" style="shape=partialRectangle;html=1;whiteSpace=wrap;connectable=0;strokeColor=inherit;overflow=hidden;fillColor=none;top=0;left=0;bottom=0;right=0;pointerEvents=1;" parent="woTAsU7SqV_SNtMcE8Xr-88" vertex="1">
          <mxGeometry x="310" width="130" height="37" as="geometry">
            <mxRectangle width="130" height="37" as="alternateBounds" />
          </mxGeometry>
        </mxCell>
        <mxCell id="woTAsU7SqV_SNtMcE8Xr-92" value="&lt;b style=&quot;border-color: var(--border-color);&quot;&gt;&lt;font style=&quot;border-color: var(--border-color);&quot; color=&quot;#6c8ebf&quot;&gt;Details&amp;nbsp; &amp;nbsp; &amp;nbsp;&lt;/font&gt;&lt;/b&gt;&lt;b&gt;&lt;font color=&quot;#6c8ebf&quot;&gt;Assessment&amp;nbsp; &amp;nbsp; &amp;nbsp;Mitigation&lt;/font&gt;&lt;/b&gt;" style="shape=partialRectangle;html=1;whiteSpace=wrap;connectable=0;strokeColor=inherit;overflow=hidden;fillColor=none;top=0;left=0;bottom=0;right=0;pointerEvents=1;" parent="woTAsU7SqV_SNtMcE8Xr-88" vertex="1">
          <mxGeometry x="440" width="220" height="37" as="geometry">
            <mxRectangle width="220" height="37" as="alternateBounds" />
          </mxGeometry>
        </mxCell>
        <mxCell id="woTAsU7SqV_SNtMcE8Xr-93" value="" style="shape=tableRow;horizontal=0;startSize=0;swimlaneHead=0;swimlaneBody=0;strokeColor=inherit;top=0;left=0;bottom=0;right=0;collapsible=0;dropTarget=0;fillColor=none;points=[[0,0.5],[1,0.5]];portConstraint=eastwest;" parent="woTAsU7SqV_SNtMcE8Xr-82" vertex="1">
          <mxGeometry y="76" width="660" height="39" as="geometry" />
        </mxCell>
        <mxCell id="woTAsU7SqV_SNtMcE8Xr-94" value="CVE-2022-23456" style="shape=partialRectangle;html=1;whiteSpace=wrap;connectable=0;strokeColor=inherit;overflow=hidden;fillColor=none;top=0;left=0;bottom=0;right=0;pointerEvents=1;" parent="woTAsU7SqV_SNtMcE8Xr-93" vertex="1">
          <mxGeometry width="200" height="39" as="geometry">
            <mxRectangle width="200" height="39" as="alternateBounds" />
          </mxGeometry>
        </mxCell>
        <mxCell id="woTAsU7SqV_SNtMcE8Xr-95" value="Moderate" style="shape=partialRectangle;html=1;whiteSpace=wrap;connectable=0;strokeColor=inherit;overflow=hidden;fillColor=none;top=0;left=0;bottom=0;right=0;pointerEvents=1;" parent="woTAsU7SqV_SNtMcE8Xr-93" vertex="1">
          <mxGeometry x="200" width="110" height="39" as="geometry">
            <mxRectangle width="110" height="39" as="alternateBounds" />
          </mxGeometry>
        </mxCell>
        <mxCell id="woTAsU7SqV_SNtMcE8Xr-96" value="45264" style="shape=partialRectangle;html=1;whiteSpace=wrap;connectable=0;strokeColor=inherit;overflow=hidden;fillColor=none;top=0;left=0;bottom=0;right=0;pointerEvents=1;" parent="woTAsU7SqV_SNtMcE8Xr-93" vertex="1">
          <mxGeometry x="310" width="130" height="39" as="geometry">
            <mxRectangle width="130" height="39" as="alternateBounds" />
          </mxGeometry>
        </mxCell>
        <mxCell id="woTAsU7SqV_SNtMcE8Xr-97" value="&lt;b style=&quot;border-color: var(--border-color); color: rgb(0, 0, 0); font-family: Helvetica; font-size: 12px; font-style: normal; font-variant-ligatures: normal; font-variant-caps: normal; letter-spacing: normal; orphans: 2; text-align: center; text-indent: 0px; text-transform: none; widows: 2; word-spacing: 0px; -webkit-text-stroke-width: 0px; background-color: rgb(251, 251, 251); text-decoration-thickness: initial; text-decoration-style: initial; text-decoration-color: initial;&quot;&gt;&lt;font style=&quot;border-color: var(--border-color);&quot; color=&quot;#6c8ebf&quot;&gt;Details&amp;nbsp; &amp;nbsp; &amp;nbsp;&lt;/font&gt;&lt;/b&gt;&lt;b style=&quot;border-color: var(--border-color); color: rgb(0, 0, 0); font-family: Helvetica; font-size: 12px; font-style: normal; font-variant-ligatures: normal; font-variant-caps: normal; letter-spacing: normal; orphans: 2; text-align: center; text-indent: 0px; text-transform: none; widows: 2; word-spacing: 0px; -webkit-text-stroke-width: 0px; background-color: rgb(251, 251, 251); text-decoration-thickness: initial; text-decoration-style: initial; text-decoration-color: initial;&quot;&gt;&lt;font style=&quot;border-color: var(--border-color);&quot; color=&quot;#6c8ebf&quot;&gt;Assessment&amp;nbsp; &amp;nbsp; &amp;nbsp;Mitigation&lt;/font&gt;&lt;/b&gt;" style="shape=partialRectangle;html=1;whiteSpace=wrap;connectable=0;strokeColor=inherit;overflow=hidden;fillColor=none;top=0;left=0;bottom=0;right=0;pointerEvents=1;" parent="woTAsU7SqV_SNtMcE8Xr-93" vertex="1">
          <mxGeometry x="440" width="220" height="39" as="geometry">
            <mxRectangle width="220" height="39" as="alternateBounds" />
          </mxGeometry>
        </mxCell>
        <mxCell id="woTAsU7SqV_SNtMcE8Xr-98" value="" style="shape=tableRow;horizontal=0;startSize=0;swimlaneHead=0;swimlaneBody=0;strokeColor=inherit;top=0;left=0;bottom=0;right=0;collapsible=0;dropTarget=0;fillColor=none;points=[[0,0.5],[1,0.5]];portConstraint=eastwest;" parent="woTAsU7SqV_SNtMcE8Xr-82" vertex="1">
          <mxGeometry y="115" width="660" height="39" as="geometry" />
        </mxCell>
        <mxCell id="woTAsU7SqV_SNtMcE8Xr-99" value="CVE-2021-34567" style="shape=partialRectangle;html=1;whiteSpace=wrap;connectable=0;strokeColor=inherit;overflow=hidden;fillColor=none;top=0;left=0;bottom=0;right=0;pointerEvents=1;" parent="woTAsU7SqV_SNtMcE8Xr-98" vertex="1">
          <mxGeometry width="200" height="39" as="geometry">
            <mxRectangle width="200" height="39" as="alternateBounds" />
          </mxGeometry>
        </mxCell>
        <mxCell id="woTAsU7SqV_SNtMcE8Xr-100" value="Moderate" style="shape=partialRectangle;html=1;whiteSpace=wrap;connectable=0;strokeColor=inherit;overflow=hidden;fillColor=none;top=0;left=0;bottom=0;right=0;pointerEvents=1;" parent="woTAsU7SqV_SNtMcE8Xr-98" vertex="1">
          <mxGeometry x="200" width="110" height="39" as="geometry">
            <mxRectangle width="110" height="39" as="alternateBounds" />
          </mxGeometry>
        </mxCell>
        <mxCell id="woTAsU7SqV_SNtMcE8Xr-101" value="85475" style="shape=partialRectangle;html=1;whiteSpace=wrap;connectable=0;strokeColor=inherit;overflow=hidden;fillColor=none;top=0;left=0;bottom=0;right=0;pointerEvents=1;" parent="woTAsU7SqV_SNtMcE8Xr-98" vertex="1">
          <mxGeometry x="310" width="130" height="39" as="geometry">
            <mxRectangle width="130" height="39" as="alternateBounds" />
          </mxGeometry>
        </mxCell>
        <mxCell id="woTAsU7SqV_SNtMcE8Xr-102" value="&lt;b style=&quot;border-color: var(--border-color); color: rgb(0, 0, 0); font-family: Helvetica; font-size: 12px; font-style: normal; font-variant-ligatures: normal; font-variant-caps: normal; letter-spacing: normal; orphans: 2; text-align: center; text-indent: 0px; text-transform: none; widows: 2; word-spacing: 0px; -webkit-text-stroke-width: 0px; background-color: rgb(251, 251, 251); text-decoration-thickness: initial; text-decoration-style: initial; text-decoration-color: initial;&quot;&gt;&lt;font style=&quot;border-color: var(--border-color);&quot; color=&quot;#6c8ebf&quot;&gt;Details&amp;nbsp; &amp;nbsp; &amp;nbsp;&lt;/font&gt;&lt;/b&gt;&lt;b style=&quot;border-color: var(--border-color); color: rgb(0, 0, 0); font-family: Helvetica; font-size: 12px; font-style: normal; font-variant-ligatures: normal; font-variant-caps: normal; letter-spacing: normal; orphans: 2; text-align: center; text-indent: 0px; text-transform: none; widows: 2; word-spacing: 0px; -webkit-text-stroke-width: 0px; background-color: rgb(251, 251, 251); text-decoration-thickness: initial; text-decoration-style: initial; text-decoration-color: initial;&quot;&gt;&lt;font style=&quot;border-color: var(--border-color);&quot; color=&quot;#6c8ebf&quot;&gt;Assessment&amp;nbsp; &amp;nbsp; &amp;nbsp;Mitigation&lt;/font&gt;&lt;/b&gt;" style="shape=partialRectangle;html=1;whiteSpace=wrap;connectable=0;strokeColor=inherit;overflow=hidden;fillColor=none;top=0;left=0;bottom=0;right=0;pointerEvents=1;" parent="woTAsU7SqV_SNtMcE8Xr-98" vertex="1">
          <mxGeometry x="440" width="220" height="39" as="geometry">
            <mxRectangle width="220" height="39" as="alternateBounds" />
          </mxGeometry>
        </mxCell>
        <mxCell id="woTAsU7SqV_SNtMcE8Xr-103" value="" style="shape=tableRow;horizontal=0;startSize=0;swimlaneHead=0;swimlaneBody=0;strokeColor=inherit;top=0;left=0;bottom=0;right=0;collapsible=0;dropTarget=0;fillColor=none;points=[[0,0.5],[1,0.5]];portConstraint=eastwest;" parent="woTAsU7SqV_SNtMcE8Xr-82" vertex="1">
          <mxGeometry y="154" width="660" height="37" as="geometry" />
        </mxCell>
        <mxCell id="woTAsU7SqV_SNtMcE8Xr-104" value="CVE-2022-45678" style="shape=partialRectangle;html=1;whiteSpace=wrap;connectable=0;strokeColor=inherit;overflow=hidden;fillColor=none;top=0;left=0;bottom=0;right=0;pointerEvents=1;" parent="woTAsU7SqV_SNtMcE8Xr-103" vertex="1">
          <mxGeometry width="200" height="37" as="geometry">
            <mxRectangle width="200" height="37" as="alternateBounds" />
          </mxGeometry>
        </mxCell>
        <mxCell id="woTAsU7SqV_SNtMcE8Xr-105" value="Low" style="shape=partialRectangle;html=1;whiteSpace=wrap;connectable=0;strokeColor=inherit;overflow=hidden;fillColor=none;top=0;left=0;bottom=0;right=0;pointerEvents=1;" parent="woTAsU7SqV_SNtMcE8Xr-103" vertex="1">
          <mxGeometry x="200" width="110" height="37" as="geometry">
            <mxRectangle width="110" height="37" as="alternateBounds" />
          </mxGeometry>
        </mxCell>
        <mxCell id="woTAsU7SqV_SNtMcE8Xr-106" value="539567" style="shape=partialRectangle;html=1;whiteSpace=wrap;connectable=0;strokeColor=inherit;overflow=hidden;fillColor=none;top=0;left=0;bottom=0;right=0;pointerEvents=1;" parent="woTAsU7SqV_SNtMcE8Xr-103" vertex="1">
          <mxGeometry x="310" width="130" height="37" as="geometry">
            <mxRectangle width="130" height="37" as="alternateBounds" />
          </mxGeometry>
        </mxCell>
        <mxCell id="woTAsU7SqV_SNtMcE8Xr-107" value="&lt;b style=&quot;border-color: var(--border-color); color: rgb(0, 0, 0); font-family: Helvetica; font-size: 12px; font-style: normal; font-variant-ligatures: normal; font-variant-caps: normal; letter-spacing: normal; orphans: 2; text-align: center; text-indent: 0px; text-transform: none; widows: 2; word-spacing: 0px; -webkit-text-stroke-width: 0px; background-color: rgb(251, 251, 251); text-decoration-thickness: initial; text-decoration-style: initial; text-decoration-color: initial;&quot;&gt;&lt;font style=&quot;border-color: var(--border-color);&quot; color=&quot;#6c8ebf&quot;&gt;Details&amp;nbsp; &amp;nbsp; &amp;nbsp;&lt;/font&gt;&lt;/b&gt;&lt;b style=&quot;border-color: var(--border-color); color: rgb(0, 0, 0); font-family: Helvetica; font-size: 12px; font-style: normal; font-variant-ligatures: normal; font-variant-caps: normal; letter-spacing: normal; orphans: 2; text-align: center; text-indent: 0px; text-transform: none; widows: 2; word-spacing: 0px; -webkit-text-stroke-width: 0px; background-color: rgb(251, 251, 251); text-decoration-thickness: initial; text-decoration-style: initial; text-decoration-color: initial;&quot;&gt;&lt;font style=&quot;border-color: var(--border-color);&quot; color=&quot;#6c8ebf&quot;&gt;Assessment&amp;nbsp; &amp;nbsp; &amp;nbsp;Mitigation&lt;/font&gt;&lt;/b&gt;" style="shape=partialRectangle;html=1;whiteSpace=wrap;connectable=0;strokeColor=inherit;overflow=hidden;fillColor=none;top=0;left=0;bottom=0;right=0;pointerEvents=1;" parent="woTAsU7SqV_SNtMcE8Xr-103" vertex="1">
          <mxGeometry x="440" width="220" height="37" as="geometry">
            <mxRectangle width="220" height="37" as="alternateBounds" />
          </mxGeometry>
        </mxCell>
        <mxCell id="woTAsU7SqV_SNtMcE8Xr-108" value="" style="shape=tableRow;horizontal=0;startSize=0;swimlaneHead=0;swimlaneBody=0;strokeColor=inherit;top=0;left=0;bottom=0;right=0;collapsible=0;dropTarget=0;fillColor=none;points=[[0,0.5],[1,0.5]];portConstraint=eastwest;" parent="woTAsU7SqV_SNtMcE8Xr-82" vertex="1">
          <mxGeometry y="191" width="660" height="39" as="geometry" />
        </mxCell>
        <mxCell id="woTAsU7SqV_SNtMcE8Xr-109" value="CVE-2020-56789" style="shape=partialRectangle;html=1;whiteSpace=wrap;connectable=0;strokeColor=inherit;overflow=hidden;fillColor=none;top=0;left=0;bottom=0;right=0;pointerEvents=1;" parent="woTAsU7SqV_SNtMcE8Xr-108" vertex="1">
          <mxGeometry width="200" height="39" as="geometry">
            <mxRectangle width="200" height="39" as="alternateBounds" />
          </mxGeometry>
        </mxCell>
        <mxCell id="woTAsU7SqV_SNtMcE8Xr-110" value="High" style="shape=partialRectangle;html=1;whiteSpace=wrap;connectable=0;strokeColor=inherit;overflow=hidden;fillColor=none;top=0;left=0;bottom=0;right=0;pointerEvents=1;" parent="woTAsU7SqV_SNtMcE8Xr-108" vertex="1">
          <mxGeometry x="200" width="110" height="39" as="geometry">
            <mxRectangle width="110" height="39" as="alternateBounds" />
          </mxGeometry>
        </mxCell>
        <mxCell id="woTAsU7SqV_SNtMcE8Xr-111" value="2523" style="shape=partialRectangle;html=1;whiteSpace=wrap;connectable=0;strokeColor=inherit;overflow=hidden;fillColor=none;top=0;left=0;bottom=0;right=0;pointerEvents=1;" parent="woTAsU7SqV_SNtMcE8Xr-108" vertex="1">
          <mxGeometry x="310" width="130" height="39" as="geometry">
            <mxRectangle width="130" height="39" as="alternateBounds" />
          </mxGeometry>
        </mxCell>
        <mxCell id="woTAsU7SqV_SNtMcE8Xr-112" value="&lt;b style=&quot;border-color: var(--border-color); color: rgb(0, 0, 0); font-family: Helvetica; font-size: 12px; font-style: normal; font-variant-ligatures: normal; font-variant-caps: normal; letter-spacing: normal; orphans: 2; text-align: center; text-indent: 0px; text-transform: none; widows: 2; word-spacing: 0px; -webkit-text-stroke-width: 0px; background-color: rgb(251, 251, 251); text-decoration-thickness: initial; text-decoration-style: initial; text-decoration-color: initial;&quot;&gt;&lt;font style=&quot;border-color: var(--border-color);&quot; color=&quot;#6c8ebf&quot;&gt;Details&amp;nbsp; &amp;nbsp; &amp;nbsp;&lt;/font&gt;&lt;/b&gt;&lt;b style=&quot;border-color: var(--border-color); color: rgb(0, 0, 0); font-family: Helvetica; font-size: 12px; font-style: normal; font-variant-ligatures: normal; font-variant-caps: normal; letter-spacing: normal; orphans: 2; text-align: center; text-indent: 0px; text-transform: none; widows: 2; word-spacing: 0px; -webkit-text-stroke-width: 0px; background-color: rgb(251, 251, 251); text-decoration-thickness: initial; text-decoration-style: initial; text-decoration-color: initial;&quot;&gt;&lt;font style=&quot;border-color: var(--border-color);&quot; color=&quot;#6c8ebf&quot;&gt;Assessment&amp;nbsp; &amp;nbsp; &amp;nbsp;Mitigation&lt;/font&gt;&lt;/b&gt;" style="shape=partialRectangle;html=1;whiteSpace=wrap;connectable=0;strokeColor=inherit;overflow=hidden;fillColor=none;top=0;left=0;bottom=0;right=0;pointerEvents=1;" parent="woTAsU7SqV_SNtMcE8Xr-108" vertex="1">
          <mxGeometry x="440" width="220" height="39" as="geometry">
            <mxRectangle width="220" height="39" as="alternateBounds" />
          </mxGeometry>
        </mxCell>
        <mxCell id="woTAsU7SqV_SNtMcE8Xr-119" value="01-01-2023" style="strokeWidth=1;shadow=0;dashed=0;align=center;html=1;shape=mxgraph.mockup.forms.comboBox;strokeColor=#999999;fillColor=#ddeeff;align=left;fillColor2=#aaddff;mainText=;fontColor=#666666;fontSize=17;spacingLeft=3;" parent="1" vertex="1">
          <mxGeometry x="170" y="410" width="150" height="30" as="geometry" />
        </mxCell>
        <mxCell id="woTAsU7SqV_SNtMcE8Xr-120" value="01-02-2023" style="strokeWidth=1;shadow=0;dashed=0;align=center;html=1;shape=mxgraph.mockup.forms.comboBox;strokeColor=#999999;fillColor=#ddeeff;align=left;fillColor2=#aaddff;mainText=;fontColor=#666666;fontSize=17;spacingLeft=3;" parent="1" vertex="1">
          <mxGeometry x="360" y="410" width="150" height="30" as="geometry" />
        </mxCell>
        <mxCell id="woTAsU7SqV_SNtMcE8Xr-121" value="&lt;font style=&quot;font-size: 14px;&quot;&gt;From&lt;/font&gt;" style="text;html=1;align=center;verticalAlign=middle;resizable=0;points=[];autosize=1;strokeColor=none;fillColor=none;" parent="1" vertex="1">
          <mxGeometry x="110" y="410" width="60" height="30" as="geometry" />
        </mxCell>
        <mxCell id="woTAsU7SqV_SNtMcE8Xr-122" value="&lt;font style=&quot;font-size: 14px;&quot;&gt;To&lt;/font&gt;" style="text;html=1;align=center;verticalAlign=middle;resizable=0;points=[];autosize=1;strokeColor=none;fillColor=none;" parent="1" vertex="1">
          <mxGeometry x="320" y="410" width="40" height="30" as="geometry" />
        </mxCell>
        <mxCell id="XCUWhRlX1N_dhENC56DS-2" value="" style="image;aspect=fixed;html=1;points=[];align=center;fontSize=12;image=img/lib/azure2/general/Information.svg;" parent="1" vertex="1">
          <mxGeometry x="272" y="508" width="20" height="20" as="geometry" />
        </mxCell>
        <mxCell id="hGqdtAl15HTpZB0LE-A2-1" value="Discovered in a new service, check details for more information" style="rounded=0;whiteSpace=wrap;html=1;labelBackgroundColor=none;fillColor=#dae8fc;strokeColor=#6c8ebf;" parent="1" vertex="1">
          <mxGeometry x="286" y="520" width="120" height="60" as="geometry" />
        </mxCell>
      </root>
    </mxGraphModel>
  </diagram>
  <diagram name="Details" id="Vw5eaSc7-f_yuSRj7TMN">
    <mxGraphModel dx="1434" dy="838" grid="1" gridSize="10" guides="1" tooltips="1" connect="1" arrows="1" fold="1" page="1" pageScale="1" pageWidth="827" pageHeight="1169" math="0" shadow="0">
      <root>
        <mxCell id="h3i-hkU5-ITqfSIbHK-N-0" />
        <mxCell id="h3i-hkU5-ITqfSIbHK-N-1" parent="h3i-hkU5-ITqfSIbHK-N-0" />
        <mxCell id="h3i-hkU5-ITqfSIbHK-N-2" value="" style="rounded=0;whiteSpace=wrap;html=1;fillColor=none;" parent="h3i-hkU5-ITqfSIbHK-N-1" vertex="1">
          <mxGeometry x="80" y="290" width="720" height="350" as="geometry" />
        </mxCell>
        <mxCell id="h3i-hkU5-ITqfSIbHK-N-6" value="" style="shape=table;startSize=0;container=1;collapsible=0;childLayout=tableLayout;" parent="h3i-hkU5-ITqfSIbHK-N-1" vertex="1">
          <mxGeometry x="110" y="460" width="660" height="115" as="geometry" />
        </mxCell>
        <mxCell id="h3i-hkU5-ITqfSIbHK-N-7" value="" style="shape=tableRow;horizontal=0;startSize=0;swimlaneHead=0;swimlaneBody=0;strokeColor=inherit;top=0;left=0;bottom=0;right=0;collapsible=0;dropTarget=0;fillColor=none;points=[[0,0.5],[1,0.5]];portConstraint=eastwest;" parent="h3i-hkU5-ITqfSIbHK-N-6" vertex="1">
          <mxGeometry width="660" height="39" as="geometry" />
        </mxCell>
        <mxCell id="h3i-hkU5-ITqfSIbHK-N-8" value="Service name" style="shape=partialRectangle;html=1;whiteSpace=wrap;connectable=0;strokeColor=inherit;overflow=hidden;fillColor=none;top=0;left=0;bottom=0;right=0;pointerEvents=1;fontStyle=1" parent="h3i-hkU5-ITqfSIbHK-N-7" vertex="1">
          <mxGeometry width="90" height="39" as="geometry">
            <mxRectangle width="90" height="39" as="alternateBounds" />
          </mxGeometry>
        </mxCell>
        <mxCell id="h3i-hkU5-ITqfSIbHK-N-9" value="Dependency name" style="shape=partialRectangle;html=1;whiteSpace=wrap;connectable=0;strokeColor=inherit;overflow=hidden;fillColor=none;top=0;left=0;bottom=0;right=0;pointerEvents=1;fontStyle=1" parent="h3i-hkU5-ITqfSIbHK-N-7" vertex="1">
          <mxGeometry x="90" width="280" height="39" as="geometry">
            <mxRectangle width="280" height="39" as="alternateBounds" />
          </mxGeometry>
        </mxCell>
        <mxCell id="h3i-hkU5-ITqfSIbHK-N-10" value="Trigger count" style="shape=partialRectangle;html=1;whiteSpace=wrap;connectable=0;strokeColor=inherit;overflow=hidden;fillColor=none;top=0;left=0;bottom=0;right=0;pointerEvents=1;fontStyle=1" parent="h3i-hkU5-ITqfSIbHK-N-7" vertex="1">
          <mxGeometry x="370" width="60" height="39" as="geometry">
            <mxRectangle width="60" height="39" as="alternateBounds" />
          </mxGeometry>
        </mxCell>
        <mxCell id="N2XmXadvlNIcUSWtKruy-0" value="Mitigations enabled" style="shape=partialRectangle;html=1;whiteSpace=wrap;connectable=0;strokeColor=inherit;overflow=hidden;fillColor=none;top=0;left=0;bottom=0;right=0;pointerEvents=1;fontStyle=1" parent="h3i-hkU5-ITqfSIbHK-N-7" vertex="1">
          <mxGeometry x="430" width="80" height="39" as="geometry">
            <mxRectangle width="80" height="39" as="alternateBounds" />
          </mxGeometry>
        </mxCell>
        <mxCell id="h3i-hkU5-ITqfSIbHK-N-11" value="&lt;b&gt;Operation required&lt;/b&gt;" style="shape=partialRectangle;html=1;whiteSpace=wrap;connectable=0;strokeColor=inherit;overflow=hidden;fillColor=none;top=0;left=0;bottom=0;right=0;pointerEvents=1;" parent="h3i-hkU5-ITqfSIbHK-N-7" vertex="1">
          <mxGeometry x="510" width="150" height="39" as="geometry">
            <mxRectangle width="150" height="39" as="alternateBounds" />
          </mxGeometry>
        </mxCell>
        <mxCell id="h3i-hkU5-ITqfSIbHK-N-12" value="" style="shape=tableRow;horizontal=0;startSize=0;swimlaneHead=0;swimlaneBody=0;strokeColor=inherit;top=0;left=0;bottom=0;right=0;collapsible=0;dropTarget=0;fillColor=none;points=[[0,0.5],[1,0.5]];portConstraint=eastwest;" parent="h3i-hkU5-ITqfSIbHK-N-6" vertex="1">
          <mxGeometry y="39" width="660" height="37" as="geometry" />
        </mxCell>
        <mxCell id="h3i-hkU5-ITqfSIbHK-N-13" value="S4" style="shape=partialRectangle;html=1;whiteSpace=wrap;connectable=0;strokeColor=inherit;overflow=hidden;fillColor=none;top=0;left=0;bottom=0;right=0;pointerEvents=1;" parent="h3i-hkU5-ITqfSIbHK-N-12" vertex="1">
          <mxGeometry width="90" height="37" as="geometry">
            <mxRectangle width="90" height="37" as="alternateBounds" />
          </mxGeometry>
        </mxCell>
        <mxCell id="h3i-hkU5-ITqfSIbHK-N-14" value="org.apache.logging.log4j:log4j-core:2.14.1" style="shape=partialRectangle;html=1;whiteSpace=wrap;connectable=0;strokeColor=inherit;overflow=hidden;fillColor=none;top=0;left=0;bottom=0;right=0;pointerEvents=1;" parent="h3i-hkU5-ITqfSIbHK-N-12" vertex="1">
          <mxGeometry x="90" width="280" height="37" as="geometry">
            <mxRectangle width="280" height="37" as="alternateBounds" />
          </mxGeometry>
        </mxCell>
        <mxCell id="h3i-hkU5-ITqfSIbHK-N-15" value="0" style="shape=partialRectangle;html=1;whiteSpace=wrap;connectable=0;strokeColor=inherit;overflow=hidden;fillColor=none;top=0;left=0;bottom=0;right=0;pointerEvents=1;" parent="h3i-hkU5-ITqfSIbHK-N-12" vertex="1">
          <mxGeometry x="370" width="60" height="37" as="geometry">
            <mxRectangle width="60" height="37" as="alternateBounds" />
          </mxGeometry>
        </mxCell>
        <mxCell id="N2XmXadvlNIcUSWtKruy-1" value="0" style="shape=partialRectangle;html=1;whiteSpace=wrap;connectable=0;strokeColor=inherit;overflow=hidden;fillColor=none;top=0;left=0;bottom=0;right=0;pointerEvents=1;fontStyle=0;labelBackgroundColor=none;fontColor=default;" parent="h3i-hkU5-ITqfSIbHK-N-12" vertex="1">
          <mxGeometry x="430" width="80" height="37" as="geometry">
            <mxRectangle width="80" height="37" as="alternateBounds" />
          </mxGeometry>
        </mxCell>
        <mxCell id="h3i-hkU5-ITqfSIbHK-N-16" value="Restart service to &lt;br&gt;count new vulnerability" style="shape=partialRectangle;html=1;whiteSpace=wrap;connectable=0;strokeColor=inherit;overflow=hidden;fillColor=none;top=0;left=0;bottom=0;right=0;pointerEvents=1;fontStyle=1;labelBackgroundColor=none;fontColor=#EA6B66;" parent="h3i-hkU5-ITqfSIbHK-N-12" vertex="1">
          <mxGeometry x="510" width="150" height="37" as="geometry">
            <mxRectangle width="150" height="37" as="alternateBounds" />
          </mxGeometry>
        </mxCell>
        <mxCell id="h3i-hkU5-ITqfSIbHK-N-17" value="" style="shape=tableRow;horizontal=0;startSize=0;swimlaneHead=0;swimlaneBody=0;strokeColor=inherit;top=0;left=0;bottom=0;right=0;collapsible=0;dropTarget=0;fillColor=none;points=[[0,0.5],[1,0.5]];portConstraint=eastwest;" parent="h3i-hkU5-ITqfSIbHK-N-6" vertex="1">
          <mxGeometry y="76" width="660" height="39" as="geometry" />
        </mxCell>
        <mxCell id="h3i-hkU5-ITqfSIbHK-N-18" value="S6" style="shape=partialRectangle;html=1;whiteSpace=wrap;connectable=0;strokeColor=inherit;overflow=hidden;fillColor=none;top=0;left=0;bottom=0;right=0;pointerEvents=1;" parent="h3i-hkU5-ITqfSIbHK-N-17" vertex="1">
          <mxGeometry width="90" height="39" as="geometry">
            <mxRectangle width="90" height="39" as="alternateBounds" />
          </mxGeometry>
        </mxCell>
        <mxCell id="h3i-hkU5-ITqfSIbHK-N-19" value="org.apache.logging.log4j:log4j-core:2.14.1" style="shape=partialRectangle;html=1;whiteSpace=wrap;connectable=0;strokeColor=inherit;overflow=hidden;fillColor=none;top=0;left=0;bottom=0;right=0;pointerEvents=1;" parent="h3i-hkU5-ITqfSIbHK-N-17" vertex="1">
          <mxGeometry x="90" width="280" height="39" as="geometry">
            <mxRectangle width="280" height="39" as="alternateBounds" />
          </mxGeometry>
        </mxCell>
        <mxCell id="h3i-hkU5-ITqfSIbHK-N-20" value="25546" style="shape=partialRectangle;html=1;whiteSpace=wrap;connectable=0;strokeColor=inherit;overflow=hidden;fillColor=none;top=0;left=0;bottom=0;right=0;pointerEvents=1;" parent="h3i-hkU5-ITqfSIbHK-N-17" vertex="1">
          <mxGeometry x="370" width="60" height="39" as="geometry">
            <mxRectangle width="60" height="39" as="alternateBounds" />
          </mxGeometry>
        </mxCell>
        <mxCell id="N2XmXadvlNIcUSWtKruy-2" value="1" style="shape=partialRectangle;html=1;whiteSpace=wrap;connectable=0;strokeColor=inherit;overflow=hidden;fillColor=none;top=0;left=0;bottom=0;right=0;pointerEvents=1;fontStyle=0;labelBackgroundColor=none;fontColor=default;" parent="h3i-hkU5-ITqfSIbHK-N-17" vertex="1">
          <mxGeometry x="430" width="80" height="39" as="geometry">
            <mxRectangle width="80" height="39" as="alternateBounds" />
          </mxGeometry>
        </mxCell>
        <mxCell id="h3i-hkU5-ITqfSIbHK-N-21" value="" style="shape=partialRectangle;html=1;whiteSpace=wrap;connectable=0;strokeColor=inherit;overflow=hidden;fillColor=none;top=0;left=0;bottom=0;right=0;pointerEvents=1;fontStyle=1;labelBackgroundColor=none;fontColor=#EA6B66;" parent="h3i-hkU5-ITqfSIbHK-N-17" vertex="1">
          <mxGeometry x="510" width="150" height="39" as="geometry">
            <mxRectangle width="150" height="39" as="alternateBounds" />
          </mxGeometry>
        </mxCell>
        <mxCell id="h3i-hkU5-ITqfSIbHK-N-37" value="01-01-2023" style="strokeWidth=1;shadow=0;dashed=0;align=center;html=1;shape=mxgraph.mockup.forms.comboBox;strokeColor=#999999;fillColor=#ddeeff;align=left;fillColor2=#aaddff;mainText=;fontColor=#666666;fontSize=17;spacingLeft=3;" parent="h3i-hkU5-ITqfSIbHK-N-1" vertex="1">
          <mxGeometry x="170" y="410" width="150" height="30" as="geometry" />
        </mxCell>
        <mxCell id="h3i-hkU5-ITqfSIbHK-N-38" value="01-02-2023" style="strokeWidth=1;shadow=0;dashed=0;align=center;html=1;shape=mxgraph.mockup.forms.comboBox;strokeColor=#999999;fillColor=#ddeeff;align=left;fillColor2=#aaddff;mainText=;fontColor=#666666;fontSize=17;spacingLeft=3;" parent="h3i-hkU5-ITqfSIbHK-N-1" vertex="1">
          <mxGeometry x="360" y="410" width="150" height="30" as="geometry" />
        </mxCell>
        <mxCell id="h3i-hkU5-ITqfSIbHK-N-39" value="&lt;font style=&quot;font-size: 14px;&quot;&gt;From&lt;/font&gt;" style="text;html=1;align=center;verticalAlign=middle;resizable=0;points=[];autosize=1;strokeColor=none;fillColor=none;" parent="h3i-hkU5-ITqfSIbHK-N-1" vertex="1">
          <mxGeometry x="110" y="410" width="60" height="30" as="geometry" />
        </mxCell>
        <mxCell id="h3i-hkU5-ITqfSIbHK-N-40" value="&lt;font style=&quot;font-size: 14px;&quot;&gt;To&lt;/font&gt;" style="text;html=1;align=center;verticalAlign=middle;resizable=0;points=[];autosize=1;strokeColor=none;fillColor=none;" parent="h3i-hkU5-ITqfSIbHK-N-1" vertex="1">
          <mxGeometry x="320" y="410" width="40" height="30" as="geometry" />
        </mxCell>
        <mxCell id="rrbZ4XHQ1XxuR2PY_3JZ-0" value="&lt;span style=&quot;color: rgb(0, 0, 0); font-family: Helvetica; font-style: normal; font-variant-ligatures: normal; font-variant-caps: normal; letter-spacing: normal; orphans: 2; text-align: center; text-indent: 0px; text-transform: none; widows: 2; word-spacing: 0px; -webkit-text-stroke-width: 0px; background-color: rgb(251, 251, 251); text-decoration-thickness: initial; text-decoration-style: initial; text-decoration-color: initial; float: none; display: inline !important;&quot;&gt;&lt;font style=&quot;font-size: 22px;&quot;&gt;CVE-2021-44228&lt;/font&gt;&lt;/span&gt;" style="text;whiteSpace=wrap;html=1;" parent="h3i-hkU5-ITqfSIbHK-N-1" vertex="1">
          <mxGeometry x="110" y="320" width="200" height="50" as="geometry" />
        </mxCell>
        <mxCell id="owAoN7LJzQMqMD3Xwvm1-0" value="Go to assessment" style="strokeWidth=1;shadow=0;dashed=0;align=center;html=1;shape=mxgraph.mockup.buttons.button;strokeColor=#666666;fontColor=#ffffff;mainText=;buttonStyle=round;fontSize=17;fontStyle=1;fillColor=#008cff;whiteSpace=wrap;" parent="h3i-hkU5-ITqfSIbHK-N-1" vertex="1">
          <mxGeometry x="600" y="320" width="170" height="40" as="geometry" />
        </mxCell>
        <mxCell id="RhSrzHRNZx7f5h8O6jd4-0" value="Go to mitigation" style="strokeWidth=1;shadow=0;dashed=0;align=center;html=1;shape=mxgraph.mockup.buttons.button;strokeColor=#666666;fontColor=#ffffff;mainText=;buttonStyle=round;fontSize=17;fontStyle=1;fillColor=#008cff;whiteSpace=wrap;" parent="h3i-hkU5-ITqfSIbHK-N-1" vertex="1">
          <mxGeometry x="430" y="320" width="160" height="40" as="geometry" />
        </mxCell>
      </root>
    </mxGraphModel>
  </diagram>
  <diagram name="Assessment" id="hgQ3SXTglEpYHm0NzZD5">
    <mxGraphModel dx="989" dy="578" grid="1" gridSize="10" guides="1" tooltips="1" connect="1" arrows="1" fold="1" page="1" pageScale="1" pageWidth="827" pageHeight="1169" math="0" shadow="0">
      <root>
        <mxCell id="0DMVOa7DRU_KO4iWecAh-0" />
        <mxCell id="0DMVOa7DRU_KO4iWecAh-1" parent="0DMVOa7DRU_KO4iWecAh-0" />
        <mxCell id="0DMVOa7DRU_KO4iWecAh-2" value="" style="rounded=0;whiteSpace=wrap;html=1;fillColor=none;" parent="0DMVOa7DRU_KO4iWecAh-1" vertex="1">
          <mxGeometry x="80" y="290" width="700" height="430" as="geometry" />
        </mxCell>
        <mxCell id="0DMVOa7DRU_KO4iWecAh-37" value="01-01-2023" style="strokeWidth=1;shadow=0;dashed=0;align=center;html=1;shape=mxgraph.mockup.forms.comboBox;strokeColor=#999999;fillColor=#ddeeff;align=left;fillColor2=#aaddff;mainText=;fontColor=#666666;fontSize=17;spacingLeft=3;" parent="0DMVOa7DRU_KO4iWecAh-1" vertex="1">
          <mxGeometry x="180" y="390" width="170" height="30" as="geometry" />
        </mxCell>
        <mxCell id="0DMVOa7DRU_KO4iWecAh-38" value="01-02-2023" style="strokeWidth=1;shadow=0;dashed=0;align=center;html=1;shape=mxgraph.mockup.forms.comboBox;strokeColor=#999999;fillColor=#ddeeff;align=left;fillColor2=#aaddff;mainText=;fontColor=#666666;fontSize=17;spacingLeft=3;" parent="0DMVOa7DRU_KO4iWecAh-1" vertex="1">
          <mxGeometry x="390" y="390" width="170" height="30" as="geometry" />
        </mxCell>
        <mxCell id="0DMVOa7DRU_KO4iWecAh-39" value="&lt;font style=&quot;font-size: 14px;&quot;&gt;From&lt;/font&gt;" style="text;html=1;align=center;verticalAlign=middle;resizable=0;points=[];autosize=1;strokeColor=none;fillColor=none;" parent="0DMVOa7DRU_KO4iWecAh-1" vertex="1">
          <mxGeometry x="120" y="390" width="60" height="30" as="geometry" />
        </mxCell>
        <mxCell id="0DMVOa7DRU_KO4iWecAh-40" value="&lt;font style=&quot;font-size: 14px;&quot;&gt;To&lt;/font&gt;" style="text;html=1;align=center;verticalAlign=middle;resizable=0;points=[];autosize=1;strokeColor=none;fillColor=none;" parent="0DMVOa7DRU_KO4iWecAh-1" vertex="1">
          <mxGeometry x="350" y="390" width="40" height="30" as="geometry" />
        </mxCell>
        <mxCell id="v1Kh0uPh3knBUmXc4WRt-0" value="&lt;span style=&quot;color: rgb(0, 0, 0); font-family: Helvetica; font-style: normal; font-variant-ligatures: normal; font-variant-caps: normal; letter-spacing: normal; orphans: 2; text-align: center; text-indent: 0px; text-transform: none; widows: 2; word-spacing: 0px; -webkit-text-stroke-width: 0px; background-color: rgb(251, 251, 251); text-decoration-thickness: initial; text-decoration-style: initial; text-decoration-color: initial; float: none; display: inline !important;&quot;&gt;&lt;font style=&quot;font-size: 22px;&quot;&gt;CVE-2021-44228&lt;/font&gt;&lt;/span&gt;" style="text;whiteSpace=wrap;html=1;" parent="0DMVOa7DRU_KO4iWecAh-1" vertex="1">
          <mxGeometry x="110" y="320" width="200" height="50" as="geometry" />
        </mxCell>
        <mxCell id="v1Kh0uPh3knBUmXc4WRt-27" value="" style="group" parent="0DMVOa7DRU_KO4iWecAh-1" vertex="1" connectable="0">
          <mxGeometry x="110" y="490" width="640" height="200" as="geometry" />
        </mxCell>
        <mxCell id="v1Kh0uPh3knBUmXc4WRt-23" value="" style="shape=mxgraph.mockup.containers.marginRect;rectMarginTop=10;strokeColor=#666666;strokeWidth=1;dashed=0;rounded=1;arcSize=5;recursiveResize=0;html=1;whiteSpace=wrap;container=0;" parent="v1Kh0uPh3knBUmXc4WRt-27" vertex="1">
          <mxGeometry width="640" height="200" as="geometry" />
        </mxCell>
        <mxCell id="v1Kh0uPh3knBUmXc4WRt-24" value="Impact graph" style="shape=rect;strokeColor=none;fillColor=#008cff;strokeWidth=1;dashed=0;rounded=1;arcSize=20;fontColor=#ffffff;fontSize=17;spacing=2;spacingTop=-2;align=left;autosize=1;spacingLeft=4;resizeWidth=0;resizeHeight=0;perimeter=none;html=1;whiteSpace=wrap;container=0;" parent="v1Kh0uPh3knBUmXc4WRt-27" vertex="1">
          <mxGeometry x="5" width="125" height="30" as="geometry" />
        </mxCell>
        <mxCell id="v1Kh0uPh3knBUmXc4WRt-2" value="S4" style="ellipse;whiteSpace=wrap;html=1;aspect=fixed;fillColor=#f8cecc;strokeColor=#b85450;container=0;fontSize=10;" parent="v1Kh0uPh3knBUmXc4WRt-27" vertex="1">
          <mxGeometry x="407.42038216560513" y="45" width="27.5" height="27.5" as="geometry" />
        </mxCell>
        <mxCell id="v1Kh0uPh3knBUmXc4WRt-4" value="S6" style="ellipse;whiteSpace=wrap;html=1;aspect=fixed;fillColor=#f8cecc;strokeColor=#b85450;container=0;fontSize=10;" parent="v1Kh0uPh3knBUmXc4WRt-27" vertex="1">
          <mxGeometry x="407.42038216560513" y="127.5" width="27.5" height="27.5" as="geometry" />
        </mxCell>
        <mxCell id="v1Kh0uPh3knBUmXc4WRt-7" value="S1" style="ellipse;whiteSpace=wrap;html=1;aspect=fixed;fillColor=#dae8fc;strokeColor=#6c8ebf;container=0;fontSize=10;" parent="v1Kh0uPh3knBUmXc4WRt-27" vertex="1">
          <mxGeometry x="127.67515923566879" y="45" width="27.5" height="27.5" as="geometry" />
        </mxCell>
        <mxCell id="v1Kh0uPh3knBUmXc4WRt-12" value="S2" style="ellipse;whiteSpace=wrap;html=1;aspect=fixed;fillColor=#dae8fc;strokeColor=#6c8ebf;container=0;fontSize=10;" parent="v1Kh0uPh3knBUmXc4WRt-27" vertex="1">
          <mxGeometry x="220.92356687898086" y="45" width="27.5" height="27.5" as="geometry" />
        </mxCell>
        <mxCell id="v1Kh0uPh3knBUmXc4WRt-5" style="edgeStyle=orthogonalEdgeStyle;rounded=0;orthogonalLoop=1;jettySize=auto;html=1;entryX=0;entryY=0.5;entryDx=0;entryDy=0;fontSize=10;" parent="v1Kh0uPh3knBUmXc4WRt-27" source="v1Kh0uPh3knBUmXc4WRt-7" target="v1Kh0uPh3knBUmXc4WRt-12" edge="1">
          <mxGeometry relative="1" as="geometry" />
        </mxCell>
        <mxCell id="v1Kh0uPh3knBUmXc4WRt-6" value="100%" style="edgeLabel;html=1;align=center;verticalAlign=middle;resizable=0;points=[];container=0;fontSize=10;" parent="v1Kh0uPh3knBUmXc4WRt-5" vertex="1" connectable="0">
          <mxGeometry x="-0.15" y="-1" relative="1" as="geometry">
            <mxPoint y="-1" as="offset" />
          </mxGeometry>
        </mxCell>
        <mxCell id="v1Kh0uPh3knBUmXc4WRt-13" style="edgeStyle=orthogonalEdgeStyle;rounded=0;orthogonalLoop=1;jettySize=auto;html=1;entryX=0;entryY=0.5;entryDx=0;entryDy=0;fontSize=10;" parent="v1Kh0uPh3knBUmXc4WRt-27" source="v1Kh0uPh3knBUmXc4WRt-15" target="v1Kh0uPh3knBUmXc4WRt-4" edge="1">
          <mxGeometry relative="1" as="geometry" />
        </mxCell>
        <mxCell id="v1Kh0uPh3knBUmXc4WRt-14" value="75%" style="edgeLabel;html=1;align=center;verticalAlign=middle;resizable=0;points=[];container=0;fontSize=10;" parent="v1Kh0uPh3knBUmXc4WRt-13" vertex="1" connectable="0">
          <mxGeometry x="-0.02" y="-2" relative="1" as="geometry">
            <mxPoint x="2" y="-2" as="offset" />
          </mxGeometry>
        </mxCell>
        <mxCell id="v1Kh0uPh3knBUmXc4WRt-15" value="S5" style="ellipse;whiteSpace=wrap;html=1;aspect=fixed;fillColor=#dae8fc;strokeColor=#6c8ebf;container=0;fontSize=10;" parent="v1Kh0uPh3knBUmXc4WRt-27" vertex="1">
          <mxGeometry x="220.92356687898086" y="127.5" width="27.5" height="27.5" as="geometry" />
        </mxCell>
        <mxCell id="v1Kh0uPh3knBUmXc4WRt-10" style="edgeStyle=orthogonalEdgeStyle;rounded=0;orthogonalLoop=1;jettySize=auto;html=1;entryX=0.5;entryY=0;entryDx=0;entryDy=0;fontSize=10;" parent="v1Kh0uPh3knBUmXc4WRt-27" source="v1Kh0uPh3knBUmXc4WRt-12" target="v1Kh0uPh3knBUmXc4WRt-15" edge="1">
          <mxGeometry relative="1" as="geometry" />
        </mxCell>
        <mxCell id="v1Kh0uPh3knBUmXc4WRt-11" value="80%" style="edgeLabel;html=1;align=center;verticalAlign=middle;resizable=0;points=[];container=0;fontSize=10;" parent="v1Kh0uPh3knBUmXc4WRt-10" vertex="1" connectable="0">
          <mxGeometry x="-0.125" y="-1" relative="1" as="geometry">
            <mxPoint as="offset" />
          </mxGeometry>
        </mxCell>
        <mxCell id="v1Kh0uPh3knBUmXc4WRt-16" value="100%" style="edgeStyle=orthogonalEdgeStyle;rounded=0;orthogonalLoop=1;jettySize=auto;html=1;entryX=0;entryY=0.5;entryDx=0;entryDy=0;fontSize=10;" parent="v1Kh0uPh3knBUmXc4WRt-27" source="v1Kh0uPh3knBUmXc4WRt-17" target="v1Kh0uPh3knBUmXc4WRt-2" edge="1">
          <mxGeometry relative="1" as="geometry">
            <Array as="points">
              <mxPoint x="384.10828025477707" y="58.75" />
              <mxPoint x="384.10828025477707" y="58.75" />
            </Array>
            <mxPoint as="offset" />
          </mxGeometry>
        </mxCell>
        <mxCell id="v1Kh0uPh3knBUmXc4WRt-17" value="S3" style="ellipse;whiteSpace=wrap;html=1;aspect=fixed;fillColor=#dae8fc;strokeColor=#6c8ebf;container=0;fontSize=10;" parent="v1Kh0uPh3knBUmXc4WRt-27" vertex="1">
          <mxGeometry x="314.171974522293" y="45" width="27.5" height="27.5" as="geometry" />
        </mxCell>
        <mxCell id="v1Kh0uPh3knBUmXc4WRt-8" style="edgeStyle=orthogonalEdgeStyle;rounded=0;orthogonalLoop=1;jettySize=auto;html=1;entryX=0;entryY=0.5;entryDx=0;entryDy=0;fontSize=10;" parent="v1Kh0uPh3knBUmXc4WRt-27" source="v1Kh0uPh3knBUmXc4WRt-12" target="v1Kh0uPh3knBUmXc4WRt-17" edge="1">
          <mxGeometry relative="1" as="geometry" />
        </mxCell>
        <mxCell id="v1Kh0uPh3knBUmXc4WRt-9" value="100%" style="edgeLabel;html=1;align=center;verticalAlign=middle;resizable=0;points=[];container=0;fontSize=10;" parent="v1Kh0uPh3knBUmXc4WRt-8" vertex="1" connectable="0">
          <mxGeometry x="-0.125" y="3" relative="1" as="geometry">
            <mxPoint y="3" as="offset" />
          </mxGeometry>
        </mxCell>
        <mxCell id="v1Kh0uPh3knBUmXc4WRt-18" value="ID: CVE-2021-44228&lt;br style=&quot;font-size: 10px;&quot;&gt;&lt;br style=&quot;font-size: 10px;&quot;&gt;Class: &lt;font face=&quot;Courier New&quot; style=&quot;font-size: 10px;&quot;&gt;Logger&lt;/font&gt;&lt;br style=&quot;font-size: 10px;&quot;&gt;Callable: &lt;font face=&quot;Courier New&quot; style=&quot;font-size: 10px;&quot;&gt;log()&lt;/font&gt;" style="rounded=0;whiteSpace=wrap;html=1;fillColor=#f8cecc;strokeColor=#b85450;align=left;container=0;fontSize=10;" parent="v1Kh0uPh3knBUmXc4WRt-27" vertex="1">
          <mxGeometry x="500.66878980891715" y="72.5" width="124.33121019108282" height="55" as="geometry" />
        </mxCell>
        <mxCell id="v1Kh0uPh3knBUmXc4WRt-1" style="edgeStyle=orthogonalEdgeStyle;rounded=0;orthogonalLoop=1;jettySize=auto;html=1;entryX=0.5;entryY=0;entryDx=0;entryDy=0;dashed=1;endArrow=none;endFill=0;fontSize=10;" parent="v1Kh0uPh3knBUmXc4WRt-27" source="v1Kh0uPh3knBUmXc4WRt-2" target="v1Kh0uPh3knBUmXc4WRt-18" edge="1">
          <mxGeometry relative="1" as="geometry">
            <Array as="points">
              <mxPoint x="563" y="59" />
            </Array>
          </mxGeometry>
        </mxCell>
        <mxCell id="v1Kh0uPh3knBUmXc4WRt-3" style="edgeStyle=orthogonalEdgeStyle;rounded=0;orthogonalLoop=1;jettySize=auto;html=1;entryX=0.5;entryY=1;entryDx=0;entryDy=0;dashed=1;endArrow=none;endFill=0;fontSize=10;" parent="v1Kh0uPh3knBUmXc4WRt-27" source="v1Kh0uPh3knBUmXc4WRt-4" target="v1Kh0uPh3knBUmXc4WRt-18" edge="1">
          <mxGeometry relative="1" as="geometry">
            <Array as="points">
              <mxPoint x="563" y="141" />
            </Array>
          </mxGeometry>
        </mxCell>
        <mxCell id="v1Kh0uPh3knBUmXc4WRt-19" style="edgeStyle=orthogonalEdgeStyle;rounded=0;orthogonalLoop=1;jettySize=auto;html=1;entryX=0;entryY=0.5;entryDx=0;entryDy=0;fontSize=10;" parent="v1Kh0uPh3knBUmXc4WRt-27" source="v1Kh0uPh3knBUmXc4WRt-21" target="v1Kh0uPh3knBUmXc4WRt-7" edge="1">
          <mxGeometry relative="1" as="geometry" />
        </mxCell>
        <mxCell id="v1Kh0uPh3knBUmXc4WRt-20" value="100%" style="edgeLabel;html=1;align=center;verticalAlign=middle;resizable=0;points=[];container=0;fontSize=10;" parent="v1Kh0uPh3knBUmXc4WRt-19" vertex="1" connectable="0">
          <mxGeometry x="0.05" y="-3" relative="1" as="geometry">
            <mxPoint x="-2" y="-3" as="offset" />
          </mxGeometry>
        </mxCell>
        <mxCell id="v1Kh0uPh3knBUmXc4WRt-21" value="" style="triangle;whiteSpace=wrap;html=1;fillColor=#dae8fc;strokeColor=#6c8ebf;container=0;fontSize=10;" parent="v1Kh0uPh3knBUmXc4WRt-27" vertex="1">
          <mxGeometry x="34.42675159235668" y="45" width="31.082802547770704" height="27.5" as="geometry" />
        </mxCell>
        <mxCell id="v1Kh0uPh3knBUmXc4WRt-22" value="API Gateway" style="text;html=1;align=center;verticalAlign=middle;resizable=0;points=[];autosize=1;strokeColor=none;fillColor=none;container=0;fontSize=10;" parent="v1Kh0uPh3knBUmXc4WRt-27" vertex="1">
          <mxGeometry x="18.88535031847134" y="72.5" width="80" height="30" as="geometry" />
        </mxCell>
        <mxCell id="Vo62V0WfP7kHLys46ImO-0" value="Go to mitigation" style="strokeWidth=1;shadow=0;dashed=0;align=center;html=1;shape=mxgraph.mockup.buttons.button;strokeColor=#666666;fontColor=#ffffff;mainText=;buttonStyle=round;fontSize=17;fontStyle=1;fillColor=#008cff;whiteSpace=wrap;" parent="0DMVOa7DRU_KO4iWecAh-1" vertex="1">
          <mxGeometry x="590" y="320" width="160" height="40" as="geometry" />
        </mxCell>
        <mxCell id="eb6k8yjaAFOa67lHr31I-0" value="Percentage of all requests" style="strokeWidth=1;shadow=0;dashed=0;align=center;html=1;shape=mxgraph.mockup.forms.comboBox;strokeColor=#999999;fillColor=#ddeeff;align=left;fillColor2=#aaddff;mainText=;fontColor=#666666;fontSize=17;spacingLeft=3;" parent="0DMVOa7DRU_KO4iWecAh-1" vertex="1">
          <mxGeometry x="320" y="430" width="240" height="30" as="geometry" />
        </mxCell>
        <mxCell id="eb6k8yjaAFOa67lHr31I-1" value="&lt;font style=&quot;font-size: 14px;&quot;&gt;Vulnerability counting metric&lt;/font&gt;" style="text;html=1;align=center;verticalAlign=middle;resizable=0;points=[];autosize=1;strokeColor=none;fillColor=none;" parent="0DMVOa7DRU_KO4iWecAh-1" vertex="1">
          <mxGeometry x="120" y="430" width="200" height="30" as="geometry" />
        </mxCell>
      </root>
    </mxGraphModel>
  </diagram>
  <diagram name="Mitigation" id="ZEhQhGWkvovXk3PCiT6n">
    <mxGraphModel dx="989" dy="578" grid="1" gridSize="10" guides="1" tooltips="1" connect="1" arrows="1" fold="1" page="1" pageScale="1" pageWidth="827" pageHeight="1169" math="0" shadow="0">
      <root>
        <mxCell id="6ClkimzbPJBTCV0I1_eW-0" />
        <mxCell id="6ClkimzbPJBTCV0I1_eW-1" parent="6ClkimzbPJBTCV0I1_eW-0" />
        <mxCell id="6ClkimzbPJBTCV0I1_eW-2" value="" style="rounded=0;whiteSpace=wrap;html=1;fillColor=none;" parent="6ClkimzbPJBTCV0I1_eW-1" vertex="1">
          <mxGeometry x="80" y="290" width="720" height="430" as="geometry" />
        </mxCell>
        <mxCell id="6ClkimzbPJBTCV0I1_eW-3" value="01-01-2023" style="strokeWidth=1;shadow=0;dashed=0;align=center;html=1;shape=mxgraph.mockup.forms.comboBox;strokeColor=#999999;fillColor=#ddeeff;align=left;fillColor2=#aaddff;mainText=;fontColor=#666666;fontSize=17;spacingLeft=3;" parent="6ClkimzbPJBTCV0I1_eW-1" vertex="1">
          <mxGeometry x="170" y="410" width="150" height="30" as="geometry" />
        </mxCell>
        <mxCell id="6ClkimzbPJBTCV0I1_eW-4" value="01-02-2023" style="strokeWidth=1;shadow=0;dashed=0;align=center;html=1;shape=mxgraph.mockup.forms.comboBox;strokeColor=#999999;fillColor=#ddeeff;align=left;fillColor2=#aaddff;mainText=;fontColor=#666666;fontSize=17;spacingLeft=3;" parent="6ClkimzbPJBTCV0I1_eW-1" vertex="1">
          <mxGeometry x="360" y="410" width="150" height="30" as="geometry" />
        </mxCell>
        <mxCell id="6ClkimzbPJBTCV0I1_eW-5" value="&lt;font style=&quot;font-size: 14px;&quot;&gt;From&lt;/font&gt;" style="text;html=1;align=center;verticalAlign=middle;resizable=0;points=[];autosize=1;strokeColor=none;fillColor=none;" parent="6ClkimzbPJBTCV0I1_eW-1" vertex="1">
          <mxGeometry x="110" y="410" width="60" height="30" as="geometry" />
        </mxCell>
        <mxCell id="6ClkimzbPJBTCV0I1_eW-6" value="&lt;font style=&quot;font-size: 14px;&quot;&gt;To&lt;/font&gt;" style="text;html=1;align=center;verticalAlign=middle;resizable=0;points=[];autosize=1;strokeColor=none;fillColor=none;" parent="6ClkimzbPJBTCV0I1_eW-1" vertex="1">
          <mxGeometry x="320" y="410" width="40" height="30" as="geometry" />
        </mxCell>
        <mxCell id="6ClkimzbPJBTCV0I1_eW-7" value="&lt;span style=&quot;color: rgb(0, 0, 0); font-family: Helvetica; font-style: normal; font-variant-ligatures: normal; font-variant-caps: normal; letter-spacing: normal; orphans: 2; text-align: center; text-indent: 0px; text-transform: none; widows: 2; word-spacing: 0px; -webkit-text-stroke-width: 0px; background-color: rgb(251, 251, 251); text-decoration-thickness: initial; text-decoration-style: initial; text-decoration-color: initial; float: none; display: inline !important;&quot;&gt;&lt;font style=&quot;font-size: 22px;&quot;&gt;CVE-2021-44228&lt;/font&gt;&lt;/span&gt;" style="text;whiteSpace=wrap;html=1;" parent="6ClkimzbPJBTCV0I1_eW-1" vertex="1">
          <mxGeometry x="110" y="320" width="200" height="50" as="geometry" />
        </mxCell>
        <mxCell id="6ClkimzbPJBTCV0I1_eW-33" value="Go to assessment" style="strokeWidth=1;shadow=0;dashed=0;align=center;html=1;shape=mxgraph.mockup.buttons.button;strokeColor=#666666;fontColor=#ffffff;mainText=;buttonStyle=round;fontSize=17;fontStyle=1;fillColor=#008cff;whiteSpace=wrap;" parent="6ClkimzbPJBTCV0I1_eW-1" vertex="1">
          <mxGeometry x="600" y="320" width="170" height="40" as="geometry" />
        </mxCell>
        <mxCell id="Mgw6hzSssvHbxEOxhp2v-1" value="" style="strokeWidth=1;shadow=0;dashed=0;align=center;html=1;shape=mxgraph.mockup.containers.marginRect2;rectMarginLeft=67;strokeColor=#666666;gradientColor=none;whiteSpace=wrap;" parent="6ClkimzbPJBTCV0I1_eW-1" vertex="1">
          <mxGeometry x="110" y="485" width="660" height="200" as="geometry" />
        </mxCell>
        <mxCell id="Mgw6hzSssvHbxEOxhp2v-2" value="S5" style="strokeColor=inherit;fillColor=inherit;gradientColor=inherit;strokeWidth=1;shadow=0;dashed=0;align=center;html=1;shape=mxgraph.mockup.containers.rrect;rSize=0;fontSize=17;fontColor=#666666;" parent="Mgw6hzSssvHbxEOxhp2v-1" vertex="1">
          <mxGeometry width="60" height="25" relative="1" as="geometry">
            <mxPoint y="10" as="offset" />
          </mxGeometry>
        </mxCell>
        <mxCell id="Mgw6hzSssvHbxEOxhp2v-3" value="S6" style="strokeWidth=1;shadow=0;dashed=0;align=center;html=1;shape=mxgraph.mockup.containers.rrect;rSize=0;fontSize=17;fontColor=#ffffff;strokeColor=#008cff;fillColor=#008cff;" parent="Mgw6hzSssvHbxEOxhp2v-1" vertex="1">
          <mxGeometry width="60" height="25" relative="1" as="geometry">
            <mxPoint y="40" as="offset" />
          </mxGeometry>
        </mxCell>
        <mxCell id="Mgw6hzSssvHbxEOxhp2v-4" value="S7" style="strokeColor=inherit;fillColor=inherit;gradientColor=inherit;strokeWidth=1;shadow=0;dashed=0;align=center;html=1;shape=mxgraph.mockup.containers.rrect;rSize=0;fontSize=17;fontColor=#666666;" parent="Mgw6hzSssvHbxEOxhp2v-1" vertex="1">
          <mxGeometry width="60" height="25" relative="1" as="geometry">
            <mxPoint y="70" as="offset" />
          </mxGeometry>
        </mxCell>
        <mxCell id="Mgw6hzSssvHbxEOxhp2v-5" value="" style="strokeWidth=1;shadow=0;dashed=0;align=center;html=1;shape=mxgraph.mockup.containers.leftButton;rSize=5;strokeColor=#008cff;fillColor=#008cff;resizeHeight=1;movable=0;deletable=0;" parent="Mgw6hzSssvHbxEOxhp2v-1" vertex="1">
          <mxGeometry width="7" height="200" relative="1" as="geometry">
            <mxPoint x="60" as="offset" />
          </mxGeometry>
        </mxCell>
        <mxCell id="1THDntmbatWZxuKzQxqa-0" value="" style="shape=table;startSize=0;container=1;collapsible=0;childLayout=tableLayout;" parent="Mgw6hzSssvHbxEOxhp2v-1" vertex="1">
          <mxGeometry x="90" y="23.5" width="549.84" height="76" as="geometry" />
        </mxCell>
        <mxCell id="1THDntmbatWZxuKzQxqa-1" value="" style="shape=tableRow;horizontal=0;startSize=0;swimlaneHead=0;swimlaneBody=0;strokeColor=inherit;top=0;left=0;bottom=0;right=0;collapsible=0;dropTarget=0;fillColor=none;points=[[0,0.5],[1,0.5]];portConstraint=eastwest;" parent="1THDntmbatWZxuKzQxqa-0" vertex="1">
          <mxGeometry width="549.84" height="39" as="geometry" />
        </mxCell>
        <mxCell id="1THDntmbatWZxuKzQxqa-2" value="Dependency name" style="shape=partialRectangle;html=1;whiteSpace=wrap;connectable=0;strokeColor=inherit;overflow=hidden;fillColor=none;top=0;left=0;bottom=0;right=0;pointerEvents=1;fontStyle=1" parent="1THDntmbatWZxuKzQxqa-1" vertex="1">
          <mxGeometry width="180" height="39" as="geometry">
            <mxRectangle width="180" height="39" as="alternateBounds" />
          </mxGeometry>
        </mxCell>
        <mxCell id="1THDntmbatWZxuKzQxqa-3" value="Callable signature" style="shape=partialRectangle;html=1;whiteSpace=wrap;connectable=0;strokeColor=inherit;overflow=hidden;fillColor=none;top=0;left=0;bottom=0;right=0;pointerEvents=1;fontStyle=1" parent="1THDntmbatWZxuKzQxqa-1" vertex="1">
          <mxGeometry x="180" width="140" height="39" as="geometry">
            <mxRectangle width="140" height="39" as="alternateBounds" />
          </mxGeometry>
        </mxCell>
        <mxCell id="1THDntmbatWZxuKzQxqa-4" value="Triggers (mitigated/all)" style="shape=partialRectangle;html=1;whiteSpace=wrap;connectable=0;strokeColor=inherit;overflow=hidden;fillColor=none;top=0;left=0;bottom=0;right=0;pointerEvents=1;fontStyle=1" parent="1THDntmbatWZxuKzQxqa-1" vertex="1">
          <mxGeometry x="320" width="100" height="39" as="geometry">
            <mxRectangle width="100" height="39" as="alternateBounds" />
          </mxGeometry>
        </mxCell>
        <mxCell id="1THDntmbatWZxuKzQxqa-5" value="Mitigation" style="shape=partialRectangle;html=1;whiteSpace=wrap;connectable=0;strokeColor=inherit;overflow=hidden;fillColor=none;top=0;left=0;bottom=0;right=0;pointerEvents=1;fontStyle=1" parent="1THDntmbatWZxuKzQxqa-1" vertex="1">
          <mxGeometry x="420" width="130" height="39" as="geometry">
            <mxRectangle width="130" height="39" as="alternateBounds" />
          </mxGeometry>
        </mxCell>
        <mxCell id="1THDntmbatWZxuKzQxqa-6" value="" style="shape=tableRow;horizontal=0;startSize=0;swimlaneHead=0;swimlaneBody=0;strokeColor=inherit;top=0;left=0;bottom=0;right=0;collapsible=0;dropTarget=0;fillColor=none;points=[[0,0.5],[1,0.5]];portConstraint=eastwest;" parent="1THDntmbatWZxuKzQxqa-0" vertex="1">
          <mxGeometry y="39" width="549.84" height="37" as="geometry" />
        </mxCell>
        <mxCell id="1THDntmbatWZxuKzQxqa-7" value="&lt;font face=&quot;Helvetica&quot;&gt;org.apache.logging.log4j:log4j-core:2.14.1&lt;/font&gt;" style="shape=partialRectangle;html=1;whiteSpace=wrap;connectable=0;strokeColor=inherit;overflow=hidden;fillColor=none;top=0;left=0;bottom=0;right=0;pointerEvents=1;fontFamily=Courier New;" parent="1THDntmbatWZxuKzQxqa-6" vertex="1">
          <mxGeometry width="180" height="37" as="geometry">
            <mxRectangle width="180" height="37" as="alternateBounds" />
          </mxGeometry>
        </mxCell>
        <mxCell id="1THDntmbatWZxuKzQxqa-8" value="Logger.log()" style="shape=partialRectangle;html=1;whiteSpace=wrap;connectable=0;strokeColor=inherit;overflow=hidden;fillColor=none;top=0;left=0;bottom=0;right=0;pointerEvents=1;fontFamily=Courier New;" parent="1THDntmbatWZxuKzQxqa-6" vertex="1">
          <mxGeometry x="180" width="140" height="37" as="geometry">
            <mxRectangle width="140" height="37" as="alternateBounds" />
          </mxGeometry>
        </mxCell>
        <mxCell id="1THDntmbatWZxuKzQxqa-9" value="0/0" style="shape=partialRectangle;html=1;whiteSpace=wrap;connectable=0;strokeColor=inherit;overflow=hidden;fillColor=none;top=0;left=0;bottom=0;right=0;pointerEvents=1;" parent="1THDntmbatWZxuKzQxqa-6" vertex="1">
          <mxGeometry x="320" width="100" height="37" as="geometry">
            <mxRectangle width="100" height="37" as="alternateBounds" />
          </mxGeometry>
        </mxCell>
        <mxCell id="1THDntmbatWZxuKzQxqa-10" value="" style="shape=partialRectangle;html=1;whiteSpace=wrap;connectable=0;strokeColor=inherit;overflow=hidden;fillColor=none;top=0;left=0;bottom=0;right=0;pointerEvents=1;" parent="1THDntmbatWZxuKzQxqa-6" vertex="1">
          <mxGeometry x="420" width="130" height="37" as="geometry">
            <mxRectangle width="130" height="37" as="alternateBounds" />
          </mxGeometry>
        </mxCell>
        <mxCell id="Mgw6hzSssvHbxEOxhp2v-0" value="None" style="strokeWidth=1;shadow=0;dashed=0;align=center;html=1;shape=mxgraph.mockup.forms.comboBox;strokeColor=#999999;fillColor=#ddeeff;align=left;fillColor2=#aaddff;mainText=;fontColor=#666666;fontSize=14;spacingLeft=3;" parent="Mgw6hzSssvHbxEOxhp2v-1" vertex="1">
          <mxGeometry x="520" y="71" width="108.06" height="20" as="geometry" />
        </mxCell>
      </root>
    </mxGraphModel>
  </diagram>
</mxfile>
